<svg id="Layer_1" xmlns="http://www.w3.org/2000/svg" viewBox="0 0 48 45"><style/><path d="M24 39c-.8 0-1.5-.7-1.5-1.5V27c0-.8.7-1.5 1.5-1.5s1.5.7 1.5 1.5v10.5c0 .8-.7 1.5-1.5 1.5zm-9 0c-.8 0-1.5-.7-1.5-1.5V27c0-.8.7-1.5 1.5-1.5s1.5.7 1.5 1.5v10.5c0 .8-.7 1.5-1.5 1.5zm18 0c-.8 0-1.5-.7-1.5-1.5V27c0-.8.7-1.5 1.5-1.5s1.5.7 1.5 1.5v10.5c0 .8-.7 1.5-1.5 1.5z"/><path d="M39 45H9c-.7 0-1.3-.5-1.5-1.2L3.1 21.3c-.2-.8.4-1.6 1.2-1.8.8-.2 1.6.4 1.8 1.2L10.2 42h27.5L42 20.7c.2-.8 1-1.3 1.8-1.2.8.2 1.3 1 1.2 1.8l-4.5 22.5c-.2.7-.8 1.2-1.5 1.2z"/><path d="M46.5 22.5h-45C.7 22.5 0 21.8 0 21s.7-1.5 1.5-1.5h45c.8 0 1.5.7 1.5 1.5s-.7 1.5-1.5 1.5z"/><path d="M42 21h-3v-1.5c0-6.4-4.5-12-10.8-13.2l.6-2.9C36.4 4.9 42 11.7 42 19.5V21zM9 21H6v-1.5c0-7.8 5.5-14.6 13.2-16.2l.6 2.9C13.5 7.6 9 13.1 9 19.5V21z"/><path d="M25.5 9h-3C20 9 18 7 18 4.5S20 0 22.5 0h3C28 0 30 2 30 4.5S28 9 25.5 9zm-3-6c-.8 0-1.5.7-1.5 1.5S21.7 6 22.5 6h3c.8 0 1.5-.7 1.5-1.5S26.3 3 25.5 3h-3z"/></svg>