<svg xmlns="http://www.w3.org/2000/svg" viewBox="0 0 37.4 37.4"><path d="M35.9 11.4c-1-2.3-2.3-4.3-4-6-1.7-1.7-3.7-3-6-4S21.2 0 18.7 0c-2.6 0-5 .5-7.3 1.4-2.3 1-4.3 2.3-6 4-1.7 1.7-3 3.7-4 6S0 16.1 0 18.7c0 2.6.5 5 1.4 7.3 1 2.3 2.3 4.3 4 6 1.7 1.7 3.7 3 6 4s4.7 1.4 7.3 1.4c2.6 0 5-.5 7.3-1.4s4.3-2.3 6-4c1.7-1.7 3-3.7 4-6s1.4-4.7 1.4-7.3c0-2.6-.5-5-1.5-7.3zm-6.1 1.8c-.1.1-.1.2-.3.4L16.7 26c0 .1 0 .1-.1.1s-.2.1-.2.1h-.9c-.1 0-.1-.1-.2-.1s-.1-.1-.1-.1l-5-5c-.1-.1-.2-.2-.3-.4-.1-.1-.1-.3-.1-.4 0-.1 0-.3.1-.4.1-.1.1-.2.3-.4.1-.1.2-.2.4-.3.1-.1.2-.1.4-.1.1 0 .3 0 .4.1.1.1.3.1.4.3l4.2 4.2 12-11.7c.1-.1.2-.2.4-.3.1-.1.2-.1.4-.1.1 0 .3 0 .4.1.1.1.3.1.4.3.1.1.2.2.2.4v.4c.1.3.1.4 0 .5z" fill="#41449f"/></svg>