<?xml version="1.0" encoding="utf-8"?>
<!-- Generator: Adobe Illustrator 22.1.0, SVG Export Plug-In . SVG Version: 6.00 Build 0)  -->
<svg version="1.1" id="Layer_1" xmlns="http://www.w3.org/2000/svg" xmlns:xlink="http://www.w3.org/1999/xlink" x="0px" y="0px"
	 viewBox="0 0 1124.2 161.4" style="enable-background:new 0 0 1124.2 161.4;" xml:space="preserve">
<style type="text/css">
	.st0{fill:#FFFFFF;}
</style>
<g>
	<path class="st0" d="M170,56.4c-2.2,13.2,3.1,27.1-4.4,40.5c2.3,9.9,4.8,20.6,7.5,32.2c5.4,1.8,11.1,3.7,17.3,5.8
		c0,1.7,0,4.1,0,6.9c-8.7,1.1-16.1-2.7-23.3-6.7c-6.9-3.9-14-5-21.5-3.2c-3.2,0.8-6.5,2.1-9.4,3.7c-14.5,8.2-28.9,8.4-43.4,0.1
		c-11.1-6.3-22.2-6.3-33.3,0c-14.1,8-28.2,8-42.5,0.3c-5.1-2.7-11-4.1-16.9-6.3c0-1.6,0-4,0-7.6c6.1,1.3,11.8,2.5,18.1,3.9
		c2.2-9.6,4.6-19.7,6.9-29.8c-0.5,0.1-1,0.1-1.5,0.2c-0.9-5-2.3-10-2.6-15c-0.4-8.4-0.1-16.9-0.1-25.7c4.2-5.1,8.6-10.2,13-15.4
		c8.9,8.4,16.4,17.1,12.7,30.7c5.6,0,10.1,0,15,0c0-8.4,0-16.8,0-25.5c-4.3-3.6-8.8-7.4-13.3-11c0-11.6,0-22.9,0-34.5
		C56.6,0,64.6,0,73,0c0,3.9,0,7.5,0,11.6c3.1,0,5.9,0,9.2,0c0-3.8,0-7.6,0-11.6c8.8,0,17,0,25.8,0c0,3.9,0,7.7,0,11.8
		c3.2,0,5.8,0,9.1,0c0-4,0-7.8,0-11.8c8.5,0,16.4,0,24.7,0c0,11.4,0,22.8,0,34.8c-4.3,3.5-9,7.3-13.8,11.1c0,8.3,0,16.6,0,25.2
		c5,0,9.8,0,15,0c0-5,0-9.9,0-14.8c4.5-5.4,8.8-10.5,13.6-16.3C161.1,45.5,165.3,50.7,170,56.4z M80,122.9c0-2.6,0-4.3,0-6
		c0-3.9-0.1-7.8,0-11.7c0.2-8.9,6.8-15.5,15.4-15.4c8.6,0.1,15.1,6.7,15.2,15.7c0.1,9.1,0,18.2,0,27.5c7.5,1.3,13.9-0.2,19.9-3.8
		c8-4.7,16.5-6.9,25.7-6.2c2.3,0.2,4.6,0.5,7.4,0.8c-2-8.5-3.9-16.5-5.8-24.6c-12.7-0.8-15.1-9.4-14.7-19.6c-32.1,0-63.7,0-95.2,0
		c-1.5,15.5-2,16.2-15,20.2c-2.4,10.2-4.8,20.5-7.3,31.2c8.5,3.2,16.7,3.8,24.5,0.1C59.5,126.6,68.6,121.9,80,122.9z M91.1,8.3
		c0,4.1,0,7.7,0,11.7c-8.7,0-16.9,0-25.5,0c-0.2-3.9-0.4-7.7-0.6-11.6c-3,0-5.4,0-8.2,0c0,7.7,0,15,0,22.4c3.1,2.3,6,4.6,8.6,6.6
		c20.3,0,40,0,59.6,0c3.1-2.4,6-4.7,8.6-6.7c0-7.8,0-15,0-22.3c-2.8,0-5.2,0-8,0c-0.2,4.1-0.3,7.8-0.5,11.5c-8.8,0-17,0-25.7,0
		c0-4.1,0-7.7,0-11.5C96.6,8.3,94.3,8.3,91.1,8.3z M119.4,71.3c0-8.6,0-16.8,0-24.9c-16.3,0-32.1,0-48.1,0c0,8.5,0,16.6,0,24.9
		C87.5,71.3,103.2,71.3,119.4,71.3z M102.3,131.2c0-9.3,0.2-17.7-0.1-26.1c-0.1-4.1-3.6-7.2-7.3-6.8c-4.1,0.4-6.5,2.9-6.6,7
		c-0.2,6.2,0,12.4,0,18.6C92.9,126.2,97.1,128.5,102.3,131.2z M35.2,91.4c1-1.5,3.2-3.3,3.2-5.1c0.3-9.3,0.2-18.6,0.2-27.6
		c-1.7-1.9-3.2-3.5-6-6.5c-1.4,5.1-2.9,8.7-3.2,12.4c-0.5,6.6-0.1,13.2-0.4,19.8C28.9,87.9,30,90.3,35.2,91.4z M151.8,58.9
		c0,8.9,0,17.7,0,26.4c0,3.3,1.6,5.8,5.1,5.6c3.4-0.2,4.8-2.7,4.7-6c0-8.6,0-17.2,0-25.8c-1.6-1.9-3.1-3.6-4.9-5.7
		C155.1,55.3,153.7,56.9,151.8,58.9z"/>
	<path class="st0" d="M0,148.6c0-1.2,0-3.5,0-6.3c7.2-0.8,13.6,1.6,19.7,4.9c6,3.3,12.2,6.2,19.2,5.1c5.1-0.8,10.5-1.6,14.9-4
		c14.8-8.1,29.2-8.6,43.9-0.2c11.1,6.3,22.3,6.1,33.3-0.1c14.5-8.1,28.8-8.1,43.4,0.2c4.6,2.6,10,3.7,15.8,5.7c0,1.6,0,4.3,0,7.3
		c-8,0.6-15-2.3-21.6-6.1c-6.8-3.9-14-5.2-21.5-3.8c-3.6,0.7-7.3,1.8-10.4,3.6c-15.2,8.7-30.1,8.5-45.3-0.2
		c-9.8-5.6-20.1-5.7-30.1-0.3s-20.2,8.9-31.6,6c-3.9-1-7.5-2.9-11.3-4.4C12.8,153.7,6.9,151.4,0,148.6z"/>
	<path class="st0" d="M248.5,33.5c16.8,0,33.5-1.3,49.8,0.4c16.4,1.7,24.5,15.8,19.7,30.7c-2.3,7-7.6,10.9-14.4,14
		c1.4,0.5,2.3,0.9,3.2,1.2c12.8,4.2,17.6,11.1,17.4,24.6c-0.2,11-6.6,18.5-18.6,21.7c-3.1,0.8-6.3,1.6-9.5,1.6
		c-15.7,0.2-31.5,0.1-47.7,0.1C248.5,96.2,248.5,64.8,248.5,33.5z M253.2,80.7c0,15,0,28.9,0,42.8c14.4,0,28.4,0.3,42.4-0.2
		c4.7-0.2,9.6-1.8,14.1-3.7c5.9-2.5,8.9-7.5,9.5-13.9c1.2-12.7-4.3-21.4-17.3-22.9C285.9,81,269.6,81.3,253.2,80.7z M253.2,36
		c0,14.3,0,27.5,0,41.2c11.6,0,22.9,0.1,34.2-0.1c4-0.1,8.1-0.5,12-1.5c7.9-2.1,13.6-6.7,14.7-15.4c1.5-11.8-4.3-20.7-16.8-22.2
		C282.8,36.3,268.1,36.6,253.2,36z"/>
	<path class="st0" d="M929.2,128.5c0-32.6,0-64.1,0-95.8c1.2-0.1,2.3-0.4,3.4-0.4c14.4,0.3,28.8-0.4,43.1,1.1
		c24,2.6,40.2,21.6,40.6,46.2c0.5,24.2-15.4,44.1-39.5,47.1C961.3,128.7,945.5,128,929.2,128.5z M934.1,36.2c0,29.8,0,58.4,0,86.6
		c13.5,0,26.8,1,39.8-0.2c21.7-2,36.4-18.5,37.5-40.5c1.1-21.7-12.2-40-33.7-43.6C963.7,36.3,949.1,36.9,934.1,36.2z"/>
	<path class="st0" d="M748.8,94.3c8,11.2,15.7,22,23.9,33.4c-2.2,0.1-3.8,0.2-5.6,0.3c-7.8-10.9-15.6-21.7-23-32
		c-13.2,0-25.8,0-39,0c0,10.8,0,21.1,0,31.6c-1.8,0.1-3,0.2-4.6,0.3c0-31.9,0-63.5,0-96.3c15.8,0.8,31.4,0.5,46.7,2.8
		c15.1,2.3,23.1,12.9,24.2,27.3c1.1,14.7-5.7,25.5-19.9,31.4C750.8,93.4,750.1,93.7,748.8,94.3z M705.2,91.2
		c11.6,0,22.6,0.2,33.6-0.1c3.3-0.1,6.7-0.9,9.9-1.9c11.2-3.5,17.6-12.2,17.8-23.8c0.2-13.5-5.4-22.3-17.3-26.1
		c-14.3-4.5-29.1-1.7-43.9-2.5C705.2,55.4,705.2,73.1,705.2,91.2z"/>
	<path class="st0" d="M1060.2,32.5c20.9,0,41.4,0,62,0c0,1.4,0,2.7,0,4.4c-19.2,0-38.1,0-57.3,0c0,13.5,0,26.5,0,40.1
		c17,0,34,0,51.2,0c0,1.8,0,2.9,0,4.5c-17,0-33.9,0-51.1,0c0,14.1,0,27.7,0,41.9c19.6,0,39.1,0,59,0c0.1,1.7,0.2,2.9,0.2,4.4
		c-21.5,0-42.6,0-64.1,0C1060.2,96.1,1060.2,64.5,1060.2,32.5z"/>
	<path class="st0" d="M374.1,81.5c0,14.4,0,27.9,0,42c19.6,0,39.2,0,59,0c0.1,1.7,0.2,2.8,0.2,4.2c-21.5,0-42.7,0-64.2,0
		c0-31.7,0-63.1,0-95c20.6,0,41.3,0,62.3,0c0,1.2,0,2.4,0,4.2c-19.2,0-38.1,0-57.3,0c0,13.5,0,26.5,0,40.1c16.9,0,33.9,0,51.2,0
		c0.1,1.7,0.1,2.8,0.2,4.4C408.3,81.5,391.5,81.5,374.1,81.5z"/>
	<path class="st0" d="M892.5,127.7c-2.4,0-3.7,0-5.3,0c-4.2-9.2-8.5-18.3-12.7-27.6c-19,0-37.7,0-56.8,0c-4.2,9-8.3,18.1-12.7,27.5
		c-1.5,0.1-3.1,0.1-5.5,0.2c14.9-32.1,29.5-63.6,44.1-95.2c1.7,0,3.2,0,5,0C863.1,64.2,877.7,95.8,892.5,127.7z M846.1,38.3
		c-9.1,19.6-17.6,38.1-26.4,57.2c17.9,0,35,0,52.7,0C863.6,76.3,855,57.7,846.1,38.3z"/>
	<path class="st0" d="M645.3,113.6c0-10.4,0-21.1,0-32.1c1.4-0.1,2.6-0.3,4-0.4c0,12,0,23.7,0,35.3c-16.7,16.9-50.4,16.2-68.5-1.4
		c-18.6-18.1-19.1-49.9-1.1-68.3c18.2-18.7,51.3-19.9,69.8-2.2c-0.7,1-1.4,2-2.3,3.4c-13.9-11.7-29.6-14.3-46.2-8.8
		c-17.2,5.7-26.8,18.2-29.4,36c-2.5,17.3,6.9,35.5,22.6,43.7C611,127.4,632.8,125.4,645.3,113.6z"/>
	<path class="st0" d="M479,32.7c1.5,0,2.7,0,4.4,0c0,30.2,0,60.1,0,90.7c18.8,0,37.1,0,55.7,0c0,1.8,0,2.8,0,4.3
		c-20,0-39.9,0-60.2,0C479,96.1,479,64.5,479,32.7z"/>
</g>
</svg>
